<svg width="100" height="45" viewBox="0 0 100 45" fill="none" xmlns="http://www.w3.org/2000/svg">
<path d="M99.3438 17.5035C98.7074 16.5182 97.7916 15.7889 97.1939 14.7725C96.6242 13.707 96.3408 12.5121 96.3713 11.3044C96.3713 9.92333 96.3713 8.53971 96.3713 7.15351C96.4178 4.05006 95.1683 2.22678 92.5682 1.97075C91.4813 1.90164 90.39 1.95892 89.3163 2.14144C88.1528 2.2755 87.0442 2.71015 86.0997 3.40261C85.1553 4.09506 84.4075 5.02145 83.93 6.09057C83.2781 7.49488 82.8512 8.9923 82.2148 10.4044C81.8306 11.2645 81.3234 12.0642 80.7091 12.7785C80.3945 13.1384 80.0547 13.4754 79.6924 13.7871C79.3467 14.1375 78.8804 14.3429 78.3885 14.3613C78.6695 14.6359 79.0216 14.8267 79.4052 14.9121C79.5294 14.9509 80.6082 15.2535 80.6548 15.0983C79.6303 18.0776 76.3706 19.994 73.4523 20.5294C74.0059 21.357 74.8284 21.9681 75.7807 22.2595C76.9526 22.632 78.5204 21.9957 79.7389 22.2595C81.2912 22.6087 82.2303 23.9276 80.4607 25.363C81.9524 25.6572 83.5001 25.3594 84.776 24.5328C85.7151 23.8889 87.244 22.8259 88.4005 22.9345C89.0602 22.9966 90.3175 24.1837 89.1766 25.0216C89.5153 25.1512 89.8779 25.2068 90.2399 25.1845C91.5538 25.0333 92.8098 24.5588 93.8954 23.8035C95.0441 23.0276 95.7736 21.8871 96.9145 21.1345C97.5122 20.7389 98.8937 20.4052 99.305 21.8018C99.3379 21.9231 99.3536 22.0485 99.3516 22.1742C99.7771 21.4692 100.001 20.6612 100 19.8378C99.9986 19.0144 99.7717 18.2071 99.3438 17.5035V17.5035ZM88.3539 11.4052C86.4446 11.5604 85.6142 7.65006 87.0267 7.25437C88.4393 6.85868 92.4596 10.2259 92.4596 10.2259C91.1553 10.8154 89.7723 11.2127 88.3539 11.4052V11.4052ZM94.982 10.5595C94.2062 10.5391 93.4376 10.4058 92.7002 10.1639C92.7002 10.1639 94.6871 8.13109 95.4632 8.26299C96.2393 8.39488 96.0142 10.544 94.982 10.5673V10.5595Z"/>
<path d="M61.4923 30.2586C62.703 22.7948 64.9926 8.96897 65.5203 6.14483C66.1412 5.83448 70.7126 5.07414 72.6917 4.74828C73.5532 4.60862 74.1819 4.5 74.4147 4.45345L75.0899 4.33707C75.714 4.25805 76.3264 4.10436 76.9138 3.87931C78.3885 3.22759 79.7001 1.38879 80.4064 0.403448L80.7168 0L80.1891 0.0543103C79.4129 0.131897 78.6368 0.217241 77.8607 0.310345C72.8469 0.931035 67.7711 1.86207 63.417 2.74655C60.8558 3.25862 58.2093 3.80948 55.586 4.39914C54.7477 4.58535 53.8785 4.74828 52.9549 4.91121C50.8389 5.2216 48.7591 5.7414 46.7459 6.46293C46.342 6.61988 45.9729 6.85448 45.6593 7.15345C45.2398 7.58528 44.9424 8.12078 44.7978 8.70517C44.7163 9.10973 44.7163 9.52648 44.7978 9.93103C44.8304 10.0574 44.9068 10.1681 45.0134 10.2434C45.12 10.3187 45.2499 10.3537 45.3799 10.3422C45.4897 10.3415 45.599 10.3285 45.7059 10.3034C46.9399 10.0009 53.6922 8.59655 55.7024 8.18535L59.6373 7.40948L60.2349 7.2931C59.5985 10.9164 58.5973 16.8905 58.2093 19.7845L57.8367 22.5L57.5961 24.3621C57.3555 26.2241 57.014 28.831 56.7657 30.856L53.4439 31.2672C54.3569 30.1042 55.032 28.7729 55.4307 27.3491C56.1448 25.0216 54.4218 23.6948 52.7531 22.4457C51.9569 21.8992 51.2275 21.2612 50.58 20.5448C49.9047 19.7069 50.2773 18.4655 50.7119 17.5655C51.2859 16.3004 52.1892 15.2125 53.3274 14.4155C53.2077 15.1341 53.0233 15.8404 52.7764 16.5259C52.6134 17.0767 52.4582 17.5888 52.3728 17.9767C52.1555 18.9621 52.3728 20.3043 54.6158 21.0181C54.77 21.0752 54.9326 21.1067 55.097 21.1112C55.3305 21.0896 55.5526 21.0003 55.736 20.8542C55.9194 20.7081 56.0561 20.5115 56.1292 20.2888C56.9548 18.5239 57.547 16.6591 57.891 14.7414C58.0307 14.2004 58.0328 13.6331 57.8973 13.0911C57.7617 12.5491 57.4928 12.0496 57.1149 11.6379C56.2898 10.8898 55.2928 10.3568 54.2122 10.0862C53.9332 10.015 53.6465 9.97847 53.3585 9.97759C52.4039 9.99345 51.4773 10.3022 50.7041 10.8621C48.5782 12.5534 46.8927 14.7334 45.7913 17.2164C44.8599 19.4819 45.1393 21.7241 46.5674 23.2759C47.1247 23.7634 47.7528 24.1636 48.4301 24.4629C49.5244 25.0293 50.7585 25.6655 51.0612 26.6121C51.4415 27.8457 50.4325 29.1259 50.1221 29.4129C49.6016 29.9343 48.9456 30.2998 48.2283 30.4681C47.8325 30.4681 47.6695 30.0569 47.4522 29.3353C47.2452 28.5344 46.8081 27.8115 46.1949 27.256C45.7694 26.9696 45.2639 26.8256 44.7513 26.8448C44.0893 26.8422 43.4394 27.0221 42.8731 27.3647C42.7253 27.4437 42.5966 27.5541 42.4961 27.6881C42.3955 27.8222 42.3255 27.9766 42.291 28.1405C42.2134 28.575 42.4307 29.0948 42.9972 29.8397C43.4577 30.5092 43.821 31.2406 44.076 32.0121C44.1537 32.2138 44.2313 32.4078 44.3089 32.6017C43.124 32.7879 41.9391 32.9845 40.7542 33.1914C38.7286 33.5405 36.6175 33.8741 34.39 34.231C32.0617 34.6112 29.6324 35.0069 27.2652 35.3948C27.8628 31.725 28.6545 27.031 29.2676 23.5552L30.6802 23.2603C30.1846 25.2445 30.1846 27.3201 30.6802 29.3043C30.975 30.2447 31.5937 31.0501 32.4264 31.5776C33.4153 32.0871 34.5116 32.3531 35.6241 32.3535H35.7017C36.4853 32.3733 37.2637 32.2203 37.9814 31.9051C38.6991 31.59 39.3384 31.1205 39.8539 30.5302C43.4551 26.6509 45.3567 19.5052 45.1161 14.8888C45.1168 14.305 44.9957 13.7274 44.7605 13.1931C44.5253 12.6587 44.1811 12.1792 43.7501 11.7853C42.7037 11.0091 41.4364 10.5877 40.1333 10.5828H39.9781C38.7072 10.6456 37.4974 11.1474 36.5554 12.0026C34.5207 14.021 32.934 16.4451 31.8987 19.1172L29.9506 19.4741C30.4396 16.8129 30.8431 14.7103 31.1225 13.3836C31.3011 12.4991 31.1225 12.0647 30.3464 11.7155C29.5991 11.3621 28.795 11.144 27.9715 11.0716H27.7076C26.9315 11.0716 26.5667 11.4207 26.4115 12.2664C26.2563 13.1121 25.744 16.1457 25.061 20.4362L22.593 20.9483C23.3691 16.4172 24.2616 11.4207 24.4479 10.575C24.6342 9.72931 24.4479 9.30259 23.6718 8.91466C22.8768 8.57636 22.0381 8.35174 21.1804 8.24741H20.8622C20.1947 8.24741 19.83 8.60431 19.6359 9.44224C19.2323 11.3198 18.0837 17.6897 17.424 22.1586L13.3105 23.0974L11.8592 23.431C10.5289 23.7498 9.21553 24.1356 7.92422 24.5871C7.40422 24.7655 6.9075 25.006 6.99287 25.7897C7.17138 27.4733 7.90094 28.2879 9.21258 28.2879H9.42214C8.41318 30.3362 7.23347 31.7871 6.53496 31.7871H6.40302C6.08481 31.6785 5.7666 30.5224 5.8054 28.2491C5.83293 26.2529 6.11726 24.2685 6.65138 22.3448C8.20362 17.3172 10.5941 13.0345 11.8747 13.0345C11.9717 13.0354 12.0663 13.0651 12.1463 13.1198C12.5266 13.3681 12.5499 14.3922 12.5654 15.2922C12.5072 16.0101 12.6134 16.7318 12.8759 17.4026C13.4059 18.1697 14.1179 18.7934 14.9481 19.2181L15.1577 19.3267L15.2663 19.1172C16.0292 17.706 16.5785 16.1895 16.8962 14.6172C17.2222 12.6931 16.8574 11.25 15.8096 10.3112C14.7741 9.50604 13.5046 9.05944 12.1929 9.03879H11.9911C10.8634 9.0172 9.76424 9.39355 8.88661 10.1017C6.69794 11.9483 4.44719 16.0448 2.8639 21.0569C1.3815 25.7121 0.822691 30.181 1.43583 32.3767C1.71602 33.3388 2.3367 34.1661 3.18211 34.7043C4.13086 35.2508 5.19361 35.5695 6.2866 35.6353C7.31336 35.7132 8.33885 35.4691 9.22035 34.9371V35.1C9.04249 35.7368 9.01591 36.4063 9.14273 37.0552C9.18843 37.2816 9.28111 37.496 9.41479 37.6844C9.54847 37.8728 9.72019 38.0311 9.91886 38.1491H9.96542C10.1917 38.3188 10.4601 38.4234 10.7415 38.4517C10.886 38.4465 11.0271 38.4066 11.1529 38.3353C11.6611 37.9389 12.0372 37.3979 12.2317 36.7836L12.3481 36.5431C13.2562 34.0448 13.4269 33.4397 13.8305 32.0509L14.1099 31.081C14.304 30.4293 14.4592 29.956 14.6066 29.5293C14.7541 29.1026 14.9171 28.5983 15.0878 27.9776C15.2586 27.3569 15.406 26.6509 15.4681 26.3328L16.8652 26.0457L16.7022 27.2638C16.4305 29.3819 16.2287 31.2284 16.1356 32.4621C16.0735 33.3931 16.1899 33.9595 16.9971 34.3086C17.6963 34.5709 18.4321 34.7227 19.178 34.7586H19.3099C20.0395 34.7586 20.35 34.456 20.4509 33.6569C20.544 32.9974 21.1106 29.6069 21.9022 25.006L23.9046 24.6026L24.4712 24.4862C24.0676 27.0388 23.1595 32.881 22.6706 36.1629C20.2103 36.6285 17.8198 37.1328 15.569 37.7147C14.7463 37.9009 13.8848 38.0638 13.0622 38.219C11.353 38.4922 9.66861 38.9021 8.02512 39.4448C5.715 40.2792 3.5631 41.4991 1.6609 43.0526C1.00462 43.5275 0.441573 44.1193 0 44.7983L0.419107 45C0.636421 44.7052 2.74748 44.3716 3.57793 44.2241C4.0048 44.1621 4.30748 44.1078 4.46271 44.069C6.1469 43.65 7.87765 43.231 9.60841 42.8353C13.0389 42.0595 16.5935 41.2836 20.2335 40.5621L22.8336 40.0578C22.933 40.1349 23.0395 40.2025 23.1518 40.2595C23.8323 40.5547 24.5676 40.7028 25.3094 40.694H25.4413C26.2174 40.694 26.458 40.2905 26.5512 39.6V39.3595C31.3709 38.4905 36.3614 37.6836 41.6701 36.9155C46.3656 36.2328 51.2397 35.5888 56.5173 34.9448C56.6689 35.2451 56.9301 35.4756 57.2469 35.5888C57.9461 35.851 58.6818 36.0029 59.4278 36.0388H59.5597C60.2893 36.0388 60.5997 35.7362 60.7006 34.9371L60.7627 34.5103H61.1818C65.1944 34.2621 69.7114 33.9362 72.9556 31.2595C73.4521 30.848 73.8953 30.3763 74.275 29.8552C74.4322 29.6639 74.5413 29.4377 74.5932 29.1957L74.6398 28.8853L71.7914 29.1802C68.3687 29.5371 64.9382 29.894 61.4923 30.2586V30.2586ZM35.8802 22.0888L37.0909 21.8172C38.3095 21.4914 38.9071 21.1034 39.1554 20.475C39.2298 20.2606 39.2844 20.0399 39.3184 19.8155C39.3419 19.6551 39.3782 19.4968 39.4271 19.3422C39.5229 19.1702 39.5732 18.9766 39.5732 18.7797C39.5732 18.5829 39.5229 18.3892 39.4271 18.2172C39.3764 18.1116 39.2973 18.0222 39.1986 17.9592C39.0998 17.8961 38.9854 17.8619 38.8683 17.8603C38.7636 17.8613 38.6595 17.8744 38.5578 17.8991L37.5799 18.0698C38.7674 15.8121 39.8462 14.6017 40.2886 14.6017C40.731 14.6017 40.3584 14.6017 40.4205 14.7181C40.9327 15.6026 40.3274 19.3034 39.4348 22.0267C38.0766 26.2086 36.439 28.4664 35.5542 28.4664H35.43C35.3729 28.4442 35.3208 28.4109 35.2768 28.3682C35.2328 28.3256 35.1978 28.2745 35.1739 28.2181C34.7936 27.3724 35.073 24.7578 35.9035 22.1043L35.8802 22.0888Z"/>
</svg>
