<svg  viewBox="0 0 120 54" fill="none" xmlns="http://www.w3.org/2000/svg">
<path d="M119.213 21.0042C118.449 19.8217 117.35 18.9466 116.633 17.7269C115.949 16.4484 115.609 15.0144 115.645 13.5652C115.645 11.908 115.645 10.2476 115.645 8.58416C115.701 4.86002 114.202 2.67209 111.082 2.36485C109.778 2.28192 108.468 2.35065 107.18 2.56967C105.783 2.73055 104.453 3.25213 103.32 4.08308C102.186 4.91403 101.289 6.02569 100.716 7.30864C99.9337 8.99381 99.4214 10.7907 98.6577 12.4852C98.1967 13.5173 97.5881 14.477 96.8509 15.3342C96.4734 15.766 96.0657 16.1705 95.6308 16.5445C95.2161 16.965 94.6565 17.2114 94.0662 17.2335C94.4034 17.563 94.8259 17.792 95.2862 17.8945C95.4352 17.9411 96.7298 18.3042 96.7857 18.1179C95.5563 21.6931 91.6447 23.9928 88.1428 24.6352C88.8071 25.6283 89.7941 26.3617 90.9368 26.7114C92.3432 27.1583 94.2245 26.3948 95.6867 26.7114C97.5494 27.1304 98.6763 28.7131 96.5529 30.4355C98.3429 30.7885 100.2 30.4313 101.731 29.4393C102.858 28.6666 104.693 27.3911 106.081 27.5214C106.872 27.5959 108.381 29.0204 107.012 30.0259C107.418 30.1814 107.853 30.2481 108.288 30.2214C109.865 30.0399 111.372 29.4705 112.675 28.5642C114.053 27.6331 114.928 26.2645 116.297 25.3614C117.015 24.8866 118.672 24.4862 119.166 26.1621C119.205 26.3077 119.224 26.4581 119.222 26.609C119.733 25.763 120.002 24.7933 120 23.8053C119.998 22.8172 119.726 21.8484 119.213 21.0042V21.0042ZM106.025 13.6862C103.734 13.8724 102.737 9.18002 104.432 8.70519C106.127 8.23036 110.952 12.2711 110.952 12.2711C109.386 12.9785 107.727 13.4552 106.025 13.6862V13.6862ZM113.978 12.6714C113.047 12.6468 112.125 12.4869 111.24 12.1966C111.24 12.1966 113.624 9.75726 114.556 9.91554C115.487 10.0738 115.217 12.6528 113.978 12.6807V12.6714Z"/>
<path d="M73.7907 36.3103C75.2436 27.3538 77.9911 10.7628 78.6244 7.37379C79.3695 7.00138 84.8551 6.08897 87.2301 5.69793C88.2639 5.53034 89.0182 5.4 89.2977 5.34414L90.1079 5.20448C90.8569 5.10966 91.5917 4.92524 92.2966 4.65517C94.0662 3.8731 95.6401 1.66655 96.4877 0.484138L96.8602 0L96.2269 0.0651724C95.2955 0.158276 94.3642 0.26069 93.4328 0.372414C87.4163 1.11724 81.3253 2.23448 76.1005 3.29586C73.027 3.91034 69.8511 4.57138 66.7032 5.27897C65.6973 5.50241 64.6542 5.69793 63.5459 5.89345C61.0067 6.26592 58.5109 6.88968 56.0951 7.75552C55.6105 7.94386 55.1675 8.22538 54.7912 8.58414C54.2877 9.10233 53.9309 9.74494 53.7574 10.4462C53.6596 10.9317 53.6596 11.4318 53.7574 11.9172C53.7965 12.0689 53.8882 12.2017 54.0161 12.2921C54.144 12.3824 54.2999 12.4245 54.4559 12.4107C54.5876 12.4098 54.7188 12.3942 54.8471 12.3641C56.3279 12.001 64.4307 10.3159 66.8428 9.82241L71.5648 8.89138L72.2819 8.75172C71.5182 13.0997 70.3168 20.2686 69.8511 23.7414L69.4041 27L69.1153 29.2345C68.8266 31.469 68.4168 34.5972 68.1188 37.0272L64.1326 37.5207C65.2283 36.125 66.0385 34.5274 66.5169 32.819C67.3737 30.0259 65.3061 28.4338 63.3037 26.9348C62.3482 26.2791 61.473 25.5135 60.696 24.6538C59.8857 23.6483 60.3327 22.1586 60.8543 21.0786C61.5431 19.5604 62.6271 18.255 63.9929 17.2986C63.8492 18.1609 63.6279 19.0085 63.3317 19.831C63.1361 20.4921 62.9498 21.1066 62.8474 21.5721C62.5866 22.7545 62.8474 24.3652 65.539 25.2217C65.724 25.2902 65.9191 25.328 66.1164 25.3334C66.3966 25.3076 66.6632 25.2003 66.8832 25.025C67.1033 24.8497 67.2673 24.6138 67.3551 24.3466C68.3457 22.2287 69.0564 19.9909 69.4693 17.6897C69.6368 17.0405 69.6394 16.3598 69.4767 15.7093C69.314 15.0589 68.9913 14.4595 68.5379 13.9655C67.5478 13.0677 66.3513 12.4281 65.0547 12.1034C64.7198 12.0179 64.3757 11.9742 64.0302 11.9731C62.8847 11.9921 61.7728 12.3627 60.845 13.0345C58.2938 15.0641 56.2713 17.6801 54.9495 20.6597C53.8319 23.3783 54.1672 26.069 55.8809 27.931C56.5497 28.5161 57.3033 28.9963 58.1161 29.3555C59.4293 30.0352 60.9102 30.7986 61.2734 31.9345C61.7298 33.4148 60.519 34.951 60.1465 35.2955C59.5219 35.9212 58.7348 36.3598 57.874 36.5617C57.399 36.5617 57.2034 36.0683 56.9426 35.2024C56.6942 34.2413 56.1697 33.3739 55.4338 32.7072C54.9233 32.3635 54.3167 32.1907 53.7015 32.2138C52.9072 32.2107 52.1273 32.4265 51.4477 32.8376C51.2703 32.9324 51.1159 33.0649 50.9953 33.2258C50.8746 33.3866 50.7906 33.5719 50.7492 33.7686C50.656 34.29 50.9168 34.9138 51.5967 35.8076C52.1493 36.611 52.5851 37.4887 52.8913 38.4145C52.9844 38.6566 53.0775 38.8893 53.1707 39.1221C51.7488 39.3455 50.3269 39.5814 48.9051 39.8297C46.4743 40.2486 43.941 40.649 41.268 41.0772C38.474 41.5334 35.5589 42.0083 32.7183 42.4738C33.4354 38.07 34.3854 32.4372 35.1211 28.2662L36.8162 27.9124C36.2215 30.2935 36.2215 32.7841 36.8162 35.1652C37.17 36.2936 37.9125 37.2602 38.9117 37.8931C40.0984 38.5045 41.4139 38.8237 42.7489 38.8241H42.842C43.7824 38.848 44.7164 38.6643 45.5777 38.2862C46.4389 37.908 47.2061 37.3446 47.8247 36.6362C52.1462 31.981 54.428 23.4062 54.1393 17.8666C54.1401 17.166 53.9948 16.4729 53.7126 15.8317C53.4303 15.1904 53.0174 14.6151 52.5001 14.1424C51.2444 13.2109 49.7236 12.7053 48.16 12.6993H47.9737C46.4486 12.7747 44.9969 13.3769 43.8665 14.4031C41.4248 16.8252 39.5208 19.7342 38.2784 22.9407L35.9407 23.369C36.5275 20.1755 37.0118 17.6524 37.3471 16.0603C37.5613 14.999 37.3471 14.4776 36.4157 14.0586C35.519 13.6345 34.554 13.3728 33.5658 13.2859H33.2491C32.3178 13.2859 31.88 13.7048 31.6938 14.7197C31.5075 15.7345 30.8928 19.3748 30.0732 24.5234L27.1115 25.1379C28.0429 19.7007 29.1139 13.7048 29.3375 12.69C29.561 11.6752 29.3375 11.1631 28.4061 10.6976C27.4521 10.2916 26.4457 10.0221 25.4165 9.8969H25.0346C24.2337 9.8969 23.7959 10.3252 23.5631 11.3307C23.0788 13.5838 21.7004 21.2276 20.9088 26.5903L15.9726 27.7169L14.231 28.1172C12.6346 28.4998 11.0586 28.9628 9.50906 29.5045C8.88506 29.7186 8.289 30.0072 8.39145 30.9476C8.60566 32.9679 9.48112 33.9455 11.0551 33.9455H11.3066C10.0958 36.4034 8.68016 38.1445 7.84195 38.1445H7.68362C7.30177 38.0141 6.91992 36.6269 6.96648 33.899C6.99952 31.5035 7.34071 29.1222 7.98165 26.8138C9.84435 20.7807 12.7129 15.6414 14.2496 15.6414C14.366 15.6424 14.4795 15.6781 14.5756 15.7438C15.032 16.0417 15.0599 17.2707 15.0785 18.3507C15.0086 19.2122 15.1361 20.0782 15.4511 20.8831C16.0871 21.8036 16.9415 22.5521 17.9378 23.0617L18.1892 23.1921L18.3196 22.9407C19.235 21.2472 19.8941 19.4275 20.2754 17.5407C20.6666 15.2317 20.2289 13.5 18.9716 12.3734C17.7289 11.4072 16.2056 10.8713 14.6315 10.8466H14.3893C13.0361 10.8206 11.7171 11.2723 10.6639 12.1221C8.03753 14.3379 5.33662 19.2538 3.43667 25.2683C1.6578 30.8545 0.987229 36.2172 1.72299 38.8521C2.05922 40.0065 2.80404 40.9993 3.81853 41.6452C4.95703 42.3009 6.23233 42.6834 7.54392 42.7624C8.77603 42.8558 10.0066 42.5629 11.0644 41.9245V42.12C10.851 42.8841 10.8191 43.6876 10.9713 44.4662C11.0261 44.7379 11.1373 44.9952 11.2977 45.2213C11.4582 45.4474 11.6642 45.6374 11.9026 45.779H11.9585C12.2301 45.9826 12.5521 46.1081 12.8899 46.1421C13.0632 46.1358 13.2325 46.0879 13.3835 46.0024C13.9933 45.5267 14.4446 44.8775 14.678 44.1403L14.8177 43.8517C15.9074 40.8538 16.1123 40.1276 16.5966 38.461L16.9319 37.2972C17.1647 36.5152 17.351 35.9472 17.528 35.4352C17.7049 34.9231 17.9005 34.3179 18.1054 33.5731C18.3103 32.8283 18.4873 31.981 18.5618 31.5993L20.2382 31.2548L20.0426 32.7166C19.7166 35.2583 19.4745 37.4741 19.3627 38.9545C19.2882 40.0717 19.4279 40.7514 20.3965 41.1703C21.2356 41.485 22.1185 41.6672 23.0136 41.7103H23.1719C24.0474 41.7103 24.4199 41.3472 24.541 40.3883C24.6528 39.5969 25.3327 35.5283 26.2826 30.0072L28.6855 29.5231L29.3654 29.3834C28.8811 32.4466 27.7914 39.4572 27.2047 43.3955C24.2523 43.9541 21.3838 44.5593 18.6828 45.2576C17.6956 45.481 16.6618 45.6766 15.6746 45.8628C13.6236 46.1906 11.6023 46.6825 9.63014 47.3338C6.858 48.3351 4.27572 49.7989 1.99309 51.6631C1.20555 52.233 0.529888 52.9431 0 53.7579L0.502928 54C0.763705 53.6462 3.29697 53.2459 4.29351 53.069C4.80576 52.9945 5.16898 52.9293 5.35525 52.8828C7.37628 52.38 9.45318 51.8772 11.5301 51.4024C15.6466 50.4714 19.9122 49.5403 24.2802 48.6745L27.4003 48.0693C27.5196 48.1619 27.6474 48.243 27.7821 48.3114C28.5987 48.6657 29.4811 48.8434 30.3713 48.8328H30.5296C31.4609 48.8328 31.7497 48.3486 31.8614 47.52V47.2314C37.6451 46.1886 43.6337 45.2203 50.0041 44.2986C55.6387 43.4793 61.4876 42.7066 67.8208 41.9338C68.0027 42.2941 68.3161 42.5707 68.6962 42.7066C69.5353 43.0212 70.4182 43.2034 71.3133 43.2466H71.4717C72.3471 43.2466 72.7197 42.8834 72.8407 41.9245L72.9152 41.4124H73.4182C78.2332 41.1145 83.6537 40.7235 87.5467 37.5114C88.1425 37.0176 88.6743 36.4515 89.13 35.8262C89.3186 35.5966 89.4496 35.3253 89.5119 35.0348L89.5677 34.6624L86.1497 35.0162C82.0425 35.4445 77.9259 35.8728 73.7907 36.3103V36.3103ZM43.0562 26.5066L44.5091 26.1807C45.9713 25.7897 46.6885 25.3241 46.9865 24.57C47.0758 24.3127 47.1413 24.0478 47.1821 23.7786C47.2103 23.5861 47.2539 23.3962 47.3125 23.2107C47.4275 23.0043 47.4878 22.7719 47.4878 22.5357C47.4878 22.2994 47.4275 22.0671 47.3125 21.8607C47.2517 21.7339 47.1568 21.6267 47.0383 21.551C46.9198 21.4753 46.7825 21.4342 46.6419 21.4324C46.5164 21.4336 46.3914 21.4492 46.2694 21.479L45.0959 21.6838C46.5208 18.9745 47.8154 17.5221 48.3463 17.5221C48.8771 17.5221 48.4301 17.5221 48.5046 17.6617C49.1193 18.7231 48.3928 23.1641 47.3218 26.4321C45.6919 31.4503 43.7268 34.1597 42.6651 34.1597H42.516C42.4475 34.1331 42.3849 34.093 42.3321 34.0418C42.2794 33.9907 42.2374 33.9294 42.2087 33.8617C41.7523 32.8469 42.0876 29.7093 43.0842 26.5252L43.0562 26.5066Z"/>
</svg>
