<svg width="70" height="63" viewBox="0 0 70 63" fill="none" xmlns="http://www.w3.org/2000/svg">
<path d="M68.2697 41.1988C66.5916 38.59 64.1768 36.6591 62.6011 33.9682C61.0988 31.1475 60.3514 27.9837 60.4318 24.7863C60.4318 21.1299 60.4318 17.4667 60.4318 13.7967C60.5546 5.58016 57.2598 0.752957 50.4042 0.0750947C47.5382 -0.10787 44.6607 0.0437816 41.8295 0.527003C38.7616 0.881939 35.8385 2.0327 33.3482 3.86601C30.8579 5.69932 28.8862 8.15197 27.6271 10.9825C25.9081 14.7005 24.7826 18.665 23.1045 22.4035C22.0915 24.6807 20.7541 26.798 19.1343 28.6891C18.3049 29.6419 17.409 30.5342 16.4535 31.3595C15.5422 32.2872 14.3125 32.8308 13.0155 32.8795C13.7564 33.6067 14.6849 34.1118 15.6963 34.338C16.0237 34.4407 18.8683 35.2418 18.9911 34.831C16.2898 42.7188 7.69467 47.7925 0 49.2099C1.45968 51.401 3.62833 53.0191 6.13936 53.7906C9.22951 54.7765 13.3633 53.0922 16.5763 53.7906C20.6692 54.7149 23.1454 58.2069 18.4795 62.0071C22.4127 62.7859 26.4935 61.9977 29.8578 59.8092C32.334 58.1042 36.3655 55.2901 39.4147 55.5777C41.1542 55.742 44.4695 58.8848 41.4612 61.1033C42.3543 61.4465 43.3103 61.5936 44.2648 61.5346C47.7294 61.1342 51.0411 59.8779 53.9036 57.8783C56.9324 55.8242 58.856 52.8046 61.8643 50.8121C63.4401 49.7645 67.0828 48.8812 68.1674 52.5786C68.2541 52.8999 68.2955 53.2318 68.2902 53.5646C69.4123 51.6981 70.0036 49.5588 70 47.3788C69.9964 45.1988 69.398 43.0615 68.2697 41.1988V41.1988ZM39.2919 25.0533C34.2576 25.4641 32.0679 15.1113 35.7925 14.0637C39.517 13.0161 50.1177 21.931 50.1177 21.931C46.6785 23.4918 43.0319 24.5435 39.2919 25.0533V25.0533ZM56.7686 22.8143C54.7231 22.7601 52.6963 22.4072 50.7521 21.7667C50.7521 21.7667 55.991 16.3849 58.0375 16.7341C60.0839 17.0833 59.4904 22.7732 56.7686 22.8348V22.8143Z" fill="white"/>
</svg>
